# xmcd
#
# Track frame offsets:
#	150
#	16807
#	32192
#	50455
#	63222
#	78507
#	91220
#	105975
#	118179
#	134697
#
# Disc length: 2034
#
# Revision: 3
# Processed by: cddbd v1.5.1PL0 Copyright (c) Steve Scherf et al.
# Submitted via: EasyCDDAExtractor 5.0.4.1
# Normalized: r2:DSETVAR1
#
DISCID=7c07f00a
DTITLE=Various Artist - Super Hits of 1994
DYEAR=1995
DGENRE=Country
TTITLE0=Mary Chapin Carpenter - Shut Up And Kiss Me
TTITLE1=James House - A Real Good Way To Wind Up Lonesome
TTITLE2=Larry Stewart - Heart Like A Hurricane
TTITLE3=Patty Loveless - I Try To Think About Elvis
TTITLE4=Doug Stone - More Love
TTITLE5=Joe Diffie - Third Rock From The Sun
TTITLE6=Rick Trevino - She Can't Say I Didn't Cry
TTITLE7=Ken Mellons - Jukebox Junkie
TTITLE8=Wade Hayes - Old Enough To Know Better
TTITLE9=Collin Raye - Little Rock
EXTD=
EXTT0=
EXTT1=
EXTT2=
EXTT3=
EXTT4=
EXTT5=
EXTT6=
EXTT7=
EXTT8=
EXTT9=
PLAYORDER=
